<svg width="25" height="20" viewBox="0 0 25 20" fill="none" xmlns="http://www.w3.org/2000/svg">
<g clip-path="url(#clip0_3712_58)">
<path fill-rule="evenodd" clip-rule="evenodd" d="M5.19258 0.00238037C3.76611 0.00238037 2.7106 1.25092 2.75786 2.60492C2.80322 3.90575 2.74429 5.59051 2.32017 6.96444C1.89453 8.34222 1.1752 9.21532 0 9.32738V10.5926C1.1752 10.7049 1.89453 11.5776 2.32012 12.9556C2.74429 14.3295 2.80317 16.0142 2.75781 17.3151C2.71055 18.6689 3.76606 19.9176 5.19277 19.9176H19.8093C21.2358 19.9176 22.2911 18.6691 22.2438 17.3151C22.1985 16.0142 22.2574 14.3295 22.6815 12.9556C23.1072 11.5776 23.8248 10.7046 25 10.5926V9.32738C23.8248 9.21508 23.1072 8.34242 22.6815 6.96444C22.2574 5.59071 22.1985 3.90575 22.2438 2.60492C22.2911 1.25111 21.2358 0.00238037 19.8093 0.00238037H5.19238H5.19258ZM16.9492 12.2615C16.9492 14.1259 15.5585 15.2566 13.2506 15.2566H9.32202C9.20964 15.2566 9.10186 15.212 9.0224 15.1325C8.94293 15.0531 8.89829 14.9453 8.89829 14.8329V5.08715C8.89829 4.97477 8.94293 4.86699 9.0224 4.78752C9.10186 4.70806 9.20964 4.66342 9.32202 4.66342H13.2283C15.1526 4.66342 16.4156 5.7058 16.4156 7.30619C16.4156 8.42948 15.566 9.43509 14.4836 9.61127V9.66986C15.957 9.83148 16.9492 10.852 16.9492 12.2615V12.2615ZM12.8223 6.00663H10.5822V9.17069H12.4689C13.9274 9.17069 14.7316 8.58339 14.7316 7.53363C14.7314 6.54984 14.04 6.00663 12.8223 6.00663ZM10.5822 10.4261V13.913H12.9047C14.4232 13.913 15.2276 13.3036 15.2276 12.1585C15.2276 11.0134 14.4007 10.4259 12.807 10.4259H10.5822V10.4261Z" fill="#7952B3"/>
</g>
<defs>
<clipPath id="clip0_3712_58">
<rect width="25" height="19.92" fill="white"/>
</clipPath>
</defs>
</svg>
