<svg width="25" height="25" viewBox="0 0 25 25" fill="none" xmlns="http://www.w3.org/2000/svg">
<g clip-path="url(#clip0_3711_53)">
<path d="M24.9414 5.70395C24.9507 5.73707 24.9554 5.77123 24.9555 5.80554V11.1391C24.9555 11.2075 24.9368 11.2748 24.9013 11.334C24.8659 11.3932 24.8148 11.4424 24.7534 11.4764L20.1251 14.0538V19.1622C20.1251 19.3012 20.0487 19.4296 19.9241 19.4996L10.2628 24.8788C10.2407 24.8909 10.2166 24.8987 10.1924 24.907C10.1834 24.9099 10.1748 24.9153 10.1653 24.9177C10.0978 24.9349 10.0268 24.9349 9.95924 24.9177C9.94818 24.9148 9.93813 24.9089 9.92757 24.905C9.90546 24.8973 9.88234 24.8905 9.86123 24.8788L0.20198 19.4996C0.140617 19.4655 0.0896313 19.4163 0.0541605 19.3571C0.0186897 19.2979 -1.2415e-05 19.2307 -6.10352e-05 19.1622L-6.10352e-05 3.16162C-6.10352e-05 3.12662 0.00496485 3.0926 0.0140115 3.05954C0.017027 3.04836 0.0240632 3.03815 0.0280839 3.02697C0.0356228 3.00655 0.042659 2.98565 0.053716 2.96669C0.0612548 2.95406 0.0723117 2.94385 0.0813583 2.93218C0.0929179 2.91663 0.103472 2.90058 0.117042 2.88697C0.128602 2.87579 0.143679 2.86753 0.156747 2.85781C0.171322 2.84614 0.184389 2.8335 0.200974 2.82427H0.201477L5.03135 0.134653C5.09251 0.100616 5.16183 0.0827026 5.23239 0.0827026C5.30295 0.0827026 5.37227 0.100616 5.43343 0.134653L10.2633 2.82427H10.2643C10.2804 2.83399 10.294 2.84614 10.3085 2.85732C10.3216 2.86704 10.3362 2.87579 10.3477 2.88649C10.3618 2.90058 10.3719 2.91663 10.3839 2.93218C10.3925 2.94385 10.404 2.95406 10.4111 2.96669C10.4226 2.98614 10.4292 3.00655 10.4372 3.02697C10.4412 3.03815 10.4483 3.04836 10.4513 3.06003C10.4605 3.09315 10.4653 3.12731 10.4653 3.16162V13.1554L14.4901 10.914V5.80505C14.4901 5.77103 14.4951 5.73651 14.5041 5.70395C14.5077 5.69228 14.5142 5.68207 14.5182 5.67089C14.5263 5.65047 14.5333 5.62957 14.5444 5.61061C14.5519 5.59797 14.563 5.58777 14.5715 5.5761C14.5836 5.56054 14.5936 5.5445 14.6077 5.53089C14.6192 5.51971 14.6338 5.51145 14.6469 5.50173C14.662 5.49006 14.675 5.47742 14.6911 5.46818H14.6916L19.522 2.77857C19.5831 2.74449 19.6525 2.72655 19.723 2.72655C19.7936 2.72655 19.8629 2.74449 19.9241 2.77857L24.7539 5.46818C24.771 5.47791 24.7841 5.49006 24.7992 5.50124C24.8117 5.51096 24.8263 5.51971 24.8379 5.53041C24.8519 5.5445 24.862 5.56054 24.8741 5.5761C24.8831 5.58777 24.8942 5.59797 24.9012 5.61061C24.9128 5.62957 24.9193 5.65047 24.9273 5.67089C24.9319 5.68207 24.9384 5.69228 24.9414 5.70395V5.70395ZM24.1503 10.914V6.47879L22.4601 7.41989L20.1251 8.72022V13.1554L24.1508 10.914H24.1503ZM19.3205 18.9371V14.499L17.0236 15.7678L10.4648 19.3883V23.8682L19.3205 18.9371ZM0.805086 3.83488V18.9371L9.65969 23.8677V19.3887L5.03387 16.8566L5.03236 16.8557L5.03035 16.8547C5.01477 16.8459 5.0017 16.8333 4.98713 16.8226C4.97456 16.8129 4.95999 16.8051 4.94893 16.7944L4.94793 16.7929C4.93486 16.7808 4.92581 16.7657 4.91475 16.7521C4.9047 16.739 4.89264 16.7278 4.8846 16.7142L4.8841 16.7127C4.87505 16.6982 4.86952 16.6807 4.86299 16.6641C4.85645 16.6495 4.84791 16.6359 4.84389 16.6204V16.6199C4.83886 16.6014 4.83786 16.582 4.83585 16.563C4.83384 16.5484 4.82982 16.5339 4.82982 16.5193V6.0763L2.49529 4.77549L0.805086 3.83536V3.83488ZM5.23289 0.921169L1.20866 3.16162L5.23189 5.40207L9.25561 3.16114L5.23189 0.921169H5.23289ZM7.32567 14.9035L9.6602 13.6036V3.83488L7.96999 4.77597L5.63496 6.0763V15.845L7.32567 14.9035ZM19.723 3.56509L15.6993 5.80554L19.723 8.04599L23.7463 5.80505L19.723 3.56509ZM19.3205 8.72022L16.9854 7.41989L15.2952 6.47879V10.914L17.6297 12.2138L19.3205 13.1554V8.72022ZM10.0618 18.715L15.9637 15.4562L18.9139 13.8277L14.8932 11.5887L10.2638 14.1665L6.04457 16.5159L10.0618 18.715Z" fill="#FF2D20"/>
</g>
<defs>
<clipPath id="clip0_3711_53">
<rect width="25" height="25" fill="white"/>
</clipPath>
</defs>
</svg>
